<svg width="128" height="128" viewBox="0 0 128 128" fill="none" xmlns="http://www.w3.org/2000/svg">
  <defs>
    <linearGradient id="gradient" x1="0%" y1="0%" x2="100%" y2="100%">
      <stop offset="0%" style="stop-color:#667eea;stop-opacity:1" />
      <stop offset="100%" style="stop-color:#764ba2;stop-opacity:1" />
    </linearGradient>
  </defs>
  
  <!-- Background Circle -->
  <circle cx="64" cy="64" r="60" fill="url(#gradient)" stroke="#ffffff" stroke-width="4"/>
  
  <!-- Chart Line Icon -->
  <path d="M32 80 L48 64 L64 72 L80 48 L96 56" stroke="white" stroke-width="4" fill="none" stroke-linecap="round" stroke-linejoin="round"/>
  
  <!-- Data Points -->
  <circle cx="32" cy="80" r="4" fill="white"/>
  <circle cx="48" cy="64" r="4" fill="white"/>
  <circle cx="64" cy="72" r="4" fill="white"/>
  <circle cx="80" cy="48" r="4" fill="white"/>
  <circle cx="96" cy="56" r="4" fill="white"/>
  
  <!-- Toolkit Box -->
  <rect x="20" y="88" width="88" height="20" rx="4" fill="white" fill-opacity="0.2"/>
  <rect x="24" y="92" width="16" height="4" rx="2" fill="white"/>
  <rect x="44" y="92" width="24" height="4" rx="2" fill="white"/>
  <rect x="72" y="92" width="20" height="4" rx="2" fill="white"/>
  
  <rect x="24" y="100" width="20" height="4" rx="2" fill="white"/>
  <rect x="48" y="100" width="16" height="4" rx="2" fill="white"/>
  <rect x="68" y="100" width="24" height="4" rx="2" fill="white"/>
</svg>
